# WaveFront *.obj file (generated by Autodesk ATF)

mtllib axis_Y-axis.mtl

g Solid1:1

v -15.000000 370.000000 -79.538396
v 15.000000 370.000000 -79.538396
v 15.000000 410.000000 -79.538396
v -15.000000 410.000000 -79.538396
v -15.000000 370.000000 -48.750000
v -15.000000 410.000000 -78.750000
v -15.000000 410.000000 -48.750000
v 15.000000 370.000000 -48.750000
v 15.000000 410.000000 -48.750000
v 15.000000 410.000000 -78.750000
v -30.000000 370.000000 -48.750000
v -30.000000 370.000000 -98.750000
v 30.000000 370.000000 -98.750000
v 30.000000 370.000000 -48.750000
v -30.000000 410.000000 -48.750000
v -30.000000 410.000000 -78.750000
v 30.000000 420.000000 -98.750000
v 30.000000 420.000000 -158.750000
v 30.000000 430.000000 -158.750000
v 30.000000 430.000000 -78.750000
v 30.000000 410.000000 -78.750000
v 30.000000 410.000000 -48.750000
v -30.000000 420.000000 -98.750000
v -30.000000 420.000000 -158.750000
v -30.000000 430.000000 -158.750000
v -30.000000 430.000000 -78.750000
vt 0.000000 4.000000 0.000000
vt -3.000000 4.000000 0.000000
vt 0.000000 0.000000 0.000000
vt -3.000000 -0.000000 0.000000
vt 0.000000 0.000000 0.000000
vt -0.000000 4.000000 0.000000
vt -3.000000 -0.000000 0.000000
vt -3.078840 4.000000 0.000000
vt -3.078840 -0.000000 0.000000
vt -0.000000 0.000000 0.000000
vt -0.000000 4.000000 0.000000
vt -0.078840 0.000000 0.000000
vt -3.078840 4.000000 0.000000
vt -3.078840 0.000000 0.000000
vt 1.500000 -1.460580 0.000000
vt -1.500000 -1.460580 0.000000
vt 1.500000 -1.539420 0.000000
vt -1.500000 -1.539420 0.000000
vt 5.000000 -1.500000 0.000000
vt 1.921160 -1.500000 0.000000
vt 5.000000 -3.000000 0.000000
vt 0.000000 -3.000000 0.000000
vt 1.921160 1.500000 0.000000
vt 0.000000 3.000000 0.000000
vt 5.000000 3.000000 0.000000
vt 5.000000 1.500000 0.000000
vt 0.000000 1.500000 0.000000
vt 4.000000 1.500000 0.000000
vt -0.000000 3.000000 0.000000
vt 4.000000 3.000000 0.000000
vt -0.000000 1.500000 0.000000
vt 3.000000 1.500000 0.000000
vt 0.000000 3.000000 0.000000
vt 3.000000 3.000000 0.000000
vt -5.500000 -3.000000 0.000000
vt -0.500000 -3.000000 0.000000
vt -2.500000 1.000000 0.000000
vt -0.500000 2.000000 0.000000
vt -2.500000 3.000000 0.000000
vt 5.500000 3.000000 0.000000
vt 5.500000 2.000000 0.000000
vt -5.500000 1.000000 0.000000
vt 6.000000 3.000000 0.000000
vt 0.000000 3.000000 0.000000
vt 6.000000 -3.000000 0.000000
vt 0.000000 -3.000000 0.000000
vt 1.000000 3.000000 0.000000
vt 0.000000 3.000000 0.000000
vt 1.000000 -3.000000 0.000000
vt 0.000000 -3.000000 0.000000
vt 8.000000 3.000000 0.000000
vt 0.000000 3.000000 0.000000
vt 8.000000 -3.000000 0.000000
vt -0.000000 -3.000000 0.000000
vt 2.000000 3.000000 0.000000
vt 0.000000 1.500000 0.000000
vt 2.000000 -3.000000 0.000000
vt 0.000000 -1.500000 0.000000
vt 0.000000 -3.000000 0.000000
vt 0.000000 3.000000 0.000000
vt 3.000000 -1.500000 0.000000
vt -0.000000 -1.500000 0.000000
vt 3.000000 -3.000000 0.000000
vt -0.000000 -3.000000 0.000000
vt 4.000000 -1.500000 0.000000
vt 0.000000 -1.500000 0.000000
vt 4.000000 -3.000000 0.000000
vt -0.000000 -3.000000 0.000000
vt 5.000000 3.000000 0.000000
vt 0.000000 3.000000 0.000000
vt 5.000000 -3.000000 0.000000
vt 0.000000 -3.000000 0.000000
vt 0.500000 -3.000000 0.000000
vt 2.500000 1.000000 0.000000
vt 0.500000 2.000000 0.000000
vt 2.500000 3.000000 0.000000
vt -5.500000 3.000000 0.000000
vt 5.500000 -3.000000 0.000000
vt 5.500000 1.000000 0.000000
vt -5.500000 2.000000 0.000000
vn 0.000000 0.000000 0.100000
vn 0.000000 0.000000 0.100000
vn 0.000000 0.000000 0.100000
vn 0.000000 0.000000 0.100000
vn 0.100000 0.000000 -0.000000
vn 0.100000 0.000000 -0.000000
vn 0.100000 0.000000 -0.000000
vn 0.100000 0.000000 -0.000000
vn 0.100000 0.000000 -0.000000
vn -0.100000 -0.000000 0.000000
vn -0.100000 -0.000000 0.000000
vn -0.100000 -0.000000 0.000000
vn -0.100000 -0.000000 0.000000
vn -0.100000 -0.000000 0.000000
vn 0.000000 -0.100000 0.000000
vn 0.000000 -0.100000 0.000000
vn 0.000000 -0.100000 0.000000
vn 0.000000 -0.100000 0.000000
vn 0.000000 -0.100000 0.000000
vn 0.000000 -0.100000 0.000000
vn 0.000000 -0.100000 0.000000
vn 0.000000 -0.100000 0.000000
vn 0.000000 -0.100000 0.000000
vn 0.000000 -0.100000 0.000000
vn 0.000000 -0.100000 0.000000
vn 0.000000 -0.100000 0.000000
vn 0.000000 0.000000 0.100000
vn 0.000000 0.000000 0.100000
vn 0.000000 0.000000 0.100000
vn 0.000000 0.000000 0.100000
vn -0.000000 0.100000 -0.000000
vn -0.000000 0.100000 -0.000000
vn -0.000000 0.100000 -0.000000
vn -0.000000 0.100000 -0.000000
vn 0.100000 0.000000 -0.000000
vn 0.100000 0.000000 -0.000000
vn 0.100000 0.000000 -0.000000
vn 0.100000 0.000000 -0.000000
vn 0.100000 0.000000 -0.000000
vn 0.100000 0.000000 -0.000000
vn 0.100000 0.000000 -0.000000
vn 0.100000 0.000000 -0.000000
vn 0.000000 -0.100000 0.000000
vn 0.000000 -0.100000 0.000000
vn 0.000000 -0.100000 0.000000
vn 0.000000 -0.100000 0.000000
vn -0.000000 -0.000000 -0.100000
vn -0.000000 -0.000000 -0.100000
vn -0.000000 -0.000000 -0.100000
vn -0.000000 -0.000000 -0.100000
vn -0.000000 0.100000 -0.000000
vn -0.000000 0.100000 -0.000000
vn -0.000000 0.100000 -0.000000
vn -0.000000 0.100000 -0.000000
vn 0.000000 0.000000 0.100000
vn 0.000000 0.000000 0.100000
vn 0.000000 0.000000 0.100000
vn 0.000000 0.000000 0.100000
vn 0.000000 0.000000 0.100000
vn 0.000000 0.000000 0.100000
vn -0.000000 0.100000 -0.000000
vn -0.000000 0.100000 -0.000000
vn -0.000000 0.100000 -0.000000
vn -0.000000 0.100000 -0.000000
vn 0.000000 0.000000 0.100000
vn 0.000000 0.000000 0.100000
vn 0.000000 0.000000 0.100000
vn 0.000000 0.000000 0.100000
vn -0.000000 -0.000000 -0.100000
vn -0.000000 -0.000000 -0.100000
vn -0.000000 -0.000000 -0.100000
vn -0.000000 -0.000000 -0.100000
vn -0.100000 -0.000000 0.000000
vn -0.100000 -0.000000 0.000000
vn -0.100000 -0.000000 0.000000
vn -0.100000 -0.000000 0.000000
vn -0.100000 -0.000000 0.000000
vn -0.100000 -0.000000 0.000000
vn -0.100000 -0.000000 0.000000
vn -0.100000 -0.000000 0.000000
usemtl 191,191,191
f 1/1/1 2/2/2 4/3/3
f 4/3/3 2/2/2 3/4/4
f 7/5/5 5/6/6 6/7/7
f 6/7/7 5/6/6 1/8/8
f 6/7/7 1/8/8 4/9/9
f 3/10/10 2/11/11 10/12/12
f 10/12/12 2/11/11 8/13/13
f 10/12/12 8/13/13 9/14/14
f 10/15/15 6/16/16 3/17/17
f 3/17/17 6/16/16 4/18/18
f 8/19/19 2/20/20 14/21/21
f 14/21/21 2/20/20 13/22/22
f 13/22/22 2/20/20 1/23/23
f 13/22/22 1/23/23 12/24/24
f 12/24/24 1/23/23 11/25/25
f 11/25/25 1/23/23 5/26/26
f 5/27/27 7/28/28 11/29/29
f 11/29/29 7/28/28 15/30/30
f 7/31/31 6/32/32 15/33/33
f 15/33/33 6/32/32 16/34/34
f 14/35/35 13/36/36 21/37/37
f 21/37/37 13/36/36 17/38/38
f 21/37/37 17/38/38 20/39/39
f 20/39/39 17/38/38 19/40/40
f 19/40/40 17/38/38 18/41/41
f 21/37/37 22/42/42 14/35/35
f 23/43/43 24/44/44 17/45/45
f 17/45/45 24/44/44 18/46/46
f 24/47/47 25/48/48 18/49/49
f 18/49/49 25/48/48 19/50/50
f 25/51/51 26/52/52 19/53/53
f 19/53/53 26/52/52 20/54/54
f 26/55/55 6/56/56 20/57/57
f 20/57/57 6/56/56 10/58/58
f 20/57/57 10/58/58 21/59/59
f 26/55/55 16/60/60 6/56/56
f 10/61/61 9/62/62 21/63/63
f 21/63/63 9/62/62 22/64/64
f 9/65/65 8/66/66 22/67/67
f 22/67/67 8/66/66 14/68/68
f 12/69/69 23/70/70 13/71/71
f 13/71/71 23/70/70 17/72/72
f 12/73/73 16/74/74 23/75/75
f 23/75/75 16/74/74 26/76/76
f 23/75/75 26/76/76 25/77/77
f 12/73/73 11/78/78 16/74/74
f 16/74/74 11/78/78 15/79/79
f 25/77/77 24/80/80 23/75/75

# 26 vertices
# 80 texture params
# 80 normals
# 48 facets

# 1 groups
