# WaveFront *.obj file (generated by Autodesk ATF)

mtllib axis_X-axis.mtl

g Solid1

v 325.000000 420.000000 -98.750000
v 325.000000 360.000000 -98.750000
v 325.000000 360.000000 -128.750000
v 325.000000 330.000000 -63.750000
v 325.000000 330.000000 -3.750000
v 325.000000 360.000000 -3.750000
v 345.000000 360.000000 -3.750000
v 345.000000 420.000000 -98.750000
v 345.000000 330.000000 -3.750000
v 345.000000 330.000000 -63.750000
v 345.000000 360.000000 -128.750000
v 345.000000 420.000000 -128.750000
v -125.000000 360.000000 -3.750000
v -125.000000 420.000000 -98.750000
v -145.000000 420.000000 -98.750000
v -145.000000 360.000000 -3.750000
v -125.000000 330.000000 -3.750000
v -145.000000 330.000000 -3.750000
v -125.000000 330.000000 -63.750000
v -145.000000 330.000000 -63.750000
v -125.000000 360.000000 -128.750000
v -145.000000 360.000000 -128.750000
v -145.000000 420.000000 -128.750000
v -125.000000 360.000000 -98.750000
vt -3.250000 4.500000 0.000000
vt -3.250000 -1.500000 0.000000
vt 6.250000 -1.500000 0.000000
vt 0.250000 -4.500000 0.000000
vt 6.250000 -4.500000 0.000000
vt -6.250000 -1.500000 0.000000
vt -11.236103 0.000000 0.000000
vt -0.000000 0.000000 0.000000
vt -11.236103 2.000000 0.000000
vt -0.000000 2.000000 0.000000
vt -3.000000 0.000000 0.000000
vt -0.000000 0.000000 0.000000
vt -3.000000 2.000000 0.000000
vt -0.000000 2.000000 0.000000
vt -6.000000 0.000000 0.000000
vt -0.000000 0.000000 0.000000
vt -6.000000 2.000000 0.000000
vt -0.000000 2.000000 0.000000
vt -7.158911 0.000000 0.000000
vt -0.000000 0.000000 0.000000
vt -7.158911 2.000000 0.000000
vt -0.000000 2.000000 0.000000
vt 6.250000 4.500000 0.000000
vt 3.250000 4.500000 0.000000
vt 6.250000 -1.500000 0.000000
vt -0.250000 -4.500000 0.000000
vt -6.250000 -1.500000 0.000000
vt -6.250000 -4.500000 0.000000
vt 0.000000 0.000000 0.000000
vt 11.236103 0.000000 0.000000
vt 0.000000 2.000000 0.000000
vt 11.236103 2.000000 0.000000
vt 0.000000 0.000000 0.000000
vt 3.000000 0.000000 0.000000
vt 0.000000 2.000000 0.000000
vt 3.000000 2.000000 0.000000
vt 0.000000 0.000000 0.000000
vt 6.000000 0.000000 0.000000
vt 0.000000 2.000000 0.000000
vt 6.000000 2.000000 0.000000
vt 0.000000 0.000000 0.000000
vt 7.158911 0.000000 0.000000
vt 0.000000 2.000000 0.000000
vt 7.158911 2.000000 0.000000
vt -6.250000 4.500000 0.000000
vt -6.250000 -1.500000 0.000000
vt -3.250000 4.500000 0.000000
vt 0.250000 -4.500000 0.000000
vt 6.250000 -1.500000 0.000000
vt 6.250000 -4.500000 0.000000
vt 3.250000 4.500000 0.000000
vt -6.250000 -1.500000 0.000000
vt 3.250000 -1.500000 0.000000
vt -0.250000 -4.500000 0.000000
vt 6.250000 -1.500000 0.000000
vt -6.250000 -4.500000 0.000000
vt 6.000000 -24.500000 0.000000
vt 6.000000 -22.500000 0.000000
vt -0.000000 -24.500000 0.000000
vt 6.000000 22.500000 0.000000
vt -0.000000 24.500000 0.000000
vt 6.000000 24.500000 0.000000
vt 3.000000 24.500000 0.000000
vt 0.000000 22.500000 0.000000
vt 3.000000 -24.500000 0.000000
vt 0.000000 -22.500000 0.000000
vt 0.000000 -24.500000 0.000000
vt 0.000000 24.500000 0.000000
vt 6.000000 22.500000 0.000000
vt 0.000000 22.500000 0.000000
vt 6.000000 -22.500000 0.000000
vt 0.000000 -22.500000 0.000000
vt 3.000000 22.500000 0.000000
vt 0.000000 22.500000 0.000000
vt 3.000000 -22.500000 0.000000
vt 0.000000 -22.500000 0.000000
vn -0.100000 -0.000000 -0.000000
vn -0.100000 -0.000000 -0.000000
vn -0.100000 -0.000000 -0.000000
vn -0.100000 -0.000000 -0.000000
vn -0.100000 -0.000000 -0.000000
vn -0.100000 -0.000000 -0.000000
vn -0.000000 0.084549 0.053399
vn -0.000000 0.084549 0.053399
vn -0.000000 0.084549 0.053399
vn -0.000000 0.084549 0.053399
vn -0.000000 0.000000 0.100000
vn -0.000000 0.000000 0.100000
vn -0.000000 0.000000 0.100000
vn -0.000000 0.000000 0.100000
vn 0.000000 -0.100000 0.000000
vn 0.000000 -0.100000 0.000000
vn 0.000000 -0.100000 0.000000
vn 0.000000 -0.100000 0.000000
vn 0.000000 -0.090796 -0.041906
vn 0.000000 -0.090796 -0.041906
vn 0.000000 -0.090796 -0.041906
vn 0.000000 -0.090796 -0.041906
vn 0.100000 0.000000 0.000000
vn 0.100000 0.000000 0.000000
vn 0.100000 0.000000 0.000000
vn 0.100000 0.000000 0.000000
vn 0.100000 0.000000 0.000000
vn 0.100000 0.000000 0.000000
vn -0.000000 0.084549 0.053399
vn -0.000000 0.084549 0.053399
vn -0.000000 0.084549 0.053399
vn -0.000000 0.084549 0.053399
vn -0.000000 0.000000 0.100000
vn -0.000000 0.000000 0.100000
vn -0.000000 0.000000 0.100000
vn -0.000000 0.000000 0.100000
vn 0.000000 -0.100000 0.000000
vn 0.000000 -0.100000 0.000000
vn 0.000000 -0.100000 0.000000
vn 0.000000 -0.100000 0.000000
vn 0.000000 -0.090796 -0.041906
vn 0.000000 -0.090796 -0.041906
vn 0.000000 -0.090796 -0.041906
vn 0.000000 -0.090796 -0.041906
vn -0.100000 -0.000000 -0.000000
vn -0.100000 -0.000000 -0.000000
vn -0.100000 -0.000000 -0.000000
vn -0.100000 -0.000000 -0.000000
vn -0.100000 -0.000000 -0.000000
vn -0.100000 -0.000000 -0.000000
vn 0.100000 0.000000 0.000000
vn 0.100000 0.000000 0.000000
vn 0.100000 0.000000 0.000000
vn 0.100000 0.000000 0.000000
vn 0.100000 0.000000 0.000000
vn 0.100000 0.000000 0.000000
vn 0.000000 -0.000000 -0.100000
vn 0.000000 -0.000000 -0.100000
vn 0.000000 -0.000000 -0.100000
vn 0.000000 -0.000000 -0.100000
vn 0.000000 -0.000000 -0.100000
vn 0.000000 -0.000000 -0.100000
vn -0.000000 0.100000 -0.000000
vn -0.000000 0.100000 -0.000000
vn -0.000000 0.100000 -0.000000
vn -0.000000 0.100000 -0.000000
vn -0.000000 0.100000 -0.000000
vn -0.000000 0.100000 -0.000000
vn -0.000000 0.000000 0.100000
vn -0.000000 0.000000 0.100000
vn -0.000000 0.000000 0.100000
vn -0.000000 0.000000 0.100000
vn 0.000000 -0.100000 -0.000000
vn 0.000000 -0.100000 -0.000000
vn 0.000000 -0.100000 -0.000000
vn 0.000000 -0.100000 -0.000000
usemtl 191,191,191
f 1/1/1 2/2/2 6/3/3
f 6/3/3 2/2/2 4/4/4
f 6/3/3 4/4/4 5/5/5
f 2/2/2 3/6/6 4/4/4
f 1/7/7 6/8/8 8/9/9
f 8/9/9 6/8/8 7/10/10
f 6/11/11 5/12/12 7/13/13
f 7/13/13 5/12/12 9/14/14
f 5/15/15 4/16/16 9/17/17
f 9/17/17 4/16/16 10/18/18
f 4/19/19 3/20/20 10/21/21
f 10/21/21 3/20/20 11/22/22
f 12/23/23 8/24/24 11/25/25
f 11/25/25 8/24/24 10/26/26
f 10/26/26 8/24/24 7/27/27
f 10/26/26 7/27/27 9/28/28
f 13/29/29 14/30/30 16/31/31
f 16/31/31 14/30/30 15/32/32
f 17/33/33 13/34/34 18/35/35
f 18/35/35 13/34/34 16/36/36
f 19/37/37 17/38/38 20/39/39
f 20/39/39 17/38/38 18/40/40
f 21/41/41 19/42/42 22/43/43
f 22/43/43 19/42/42 20/44/44
f 23/45/45 22/46/46 15/47/47
f 15/47/47 22/46/46 20/48/48
f 15/47/47 20/48/48 16/49/49
f 16/49/49 20/48/48 18/50/50
f 14/51/51 13/52/52 24/53/53
f 24/53/53 13/52/52 19/54/54
f 24/53/53 19/54/54 21/55/55
f 13/52/52 17/56/56 19/54/54
f 11/57/57 3/58/58 12/59/59
f 12/59/59 3/58/58 21/60/60
f 12/59/59 21/60/60 23/61/61
f 23/61/61 21/60/60 22/62/62
f 23/63/63 14/64/64 12/65/65
f 12/65/65 14/64/64 1/66/66
f 12/65/65 1/66/66 8/67/67
f 23/63/63 15/68/68 14/64/64
f 14/69/69 24/70/70 1/71/71
f 1/71/71 24/70/70 2/72/72
f 24/73/73 21/74/74 2/75/75
f 2/75/75 21/74/74 3/76/76

# 24 vertices
# 76 texture params
# 76 normals
# 44 facets

# 1 groups
